# xmcd CD database file
#
# Track frame offsets:
#	150
#	27695
#	52297
#	67202
#	98965
#	119342
#	145115
#	168142
#
# Disc length: 2452 seconds
#
# Revision: 0
# Processed by: cddbd v1.5.1PL0 Copyright (c) Steve Scherf et al.
# Submitted via: CDex 1.51
#
DISCID=79099208
DTITLE=Billy Taylor - Where've You Been?
DYEAR=1981
DGENRE=Jazz
TTITLE0=Where've You Been
TTITLE1=Night Coming Tenderly
TTITLE2=Ray's Tune
TTITLE3=Antoinette
TTITLE4=I'm In Love With You
TTITLE5=All ALone
TTITLE6=I Think Of You
TTITLE7=Capricious
EXTD=YEAR: 1981
EXTT0=
EXTT1=
EXTT2=
EXTT3=
EXTT4=
EXTT5=
EXTT6=
EXTT7=
PLAYORDER=
